<svg width="96" height="96" xmlns="http://www.w3.org/2000/svg" xmlns:xlink="http://www.w3.org/1999/xlink" xml:space="preserve" overflow="hidden"><g transform="translate(-644 -191)"><path d="M724 211C724.003 207.134 720.872 203.997 717.006 203.994 713.14 203.991 710.003 207.122 710 210.988 709.998 213.358 711.195 215.567 713.18 216.86L708 232 708 232C706.57 231.998 705.174 232.435 704 233.25L693.56 225.42C694.899 221.793 693.044 217.768 689.417 216.429 685.79 215.09 681.765 216.945 680.426 220.572 679.309 223.598 680.405 226.996 683.08 228.8L676.41 250 676 250C672.134 249.991 668.993 253.117 668.983 256.983 668.974 260.849 672.101 263.991 675.967 264 679.833 264.009 682.974 260.883 682.983 257.017 682.989 254.802 681.945 252.715 680.17 251.39L686.9 230 687 230C688.499 229.997 689.957 229.514 691.16 228.62L701.51 236.37C701.177 237.207 701.004 238.099 701 239 700.998 242.866 704.131 246.001 707.997 246.003 711.863 246.004 714.998 242.871 715 239.005 715.001 236.646 713.813 234.444 711.84 233.15L717 218C720.866 218 724 214.866 724 211Z" fill="#FFFFFF"/><path d="M664 204 658 204 658 274 727 274 727 268 664 268 664 204Z" fill="#FFFFFF"/></g></svg>