<svg width="96" height="96" xmlns="http://www.w3.org/2000/svg" xmlns:xlink="http://www.w3.org/1999/xlink" xml:space="preserve" overflow="hidden"><g transform="translate(-452 -201)"><path d="M536 223.1C534.1 222.3 532.1 221.9 530 221.8 527.9 221.9 525.9 222.3 524 223.1 522.7 223.6 521.4 223.9 520 224L520 224C518.6 223.9 517.3 223.6 516 223.1 514.1 222.3 512.1 221.9 510 221.8 507.9 221.9 505.9 222.3 504 223.1 502.7 223.6 501.4 223.9 500 224 498.6 223.9 497.3 223.6 496 223.1 494.1 222.3 492.1 221.9 490 221.8 487.9 221.9 485.9 222.3 484 223.1 482.7 223.6 481.4 223.9 480 224 478.6 223.9 477.3 223.6 476 223.1 474.1 222.3 472.1 221.9 470 221.8 467.9 221.9 465.9 222.3 464 223.1 462.7 223.6 461.4 223.9 460 224L460 230C462.1 229.9 464.1 229.5 466 228.7 467.3 228.2 468.6 227.8 470 227.7 471.4 227.8 472.7 228.1 474 228.7 475.9 229.5 477.9 229.9 480 230 482.1 229.9 484.1 229.5 486 228.7 487.3 228.2 488.6 227.8 490 227.7 491.4 227.8 492.7 228.1 494 228.6 495.9 229.4 497.9 229.8 500 229.9 502.1 229.8 504.1 229.4 506 228.6 507.3 228.1 508.6 227.7 510 227.6 511.4 227.7 512.7 228 514 228.6 515.9 229.4 517.9 229.8 520 229.9 522.1 229.8 524.1 229.4 526 228.6 527.3 228.1 528.6 227.7 530 227.6 531.4 227.7 532.7 228 534 228.5 535.9 229.3 537.9 229.7 540 229.8L540 223.8C538.6 223.9 537.3 223.6 536 223.1Z" fill="#FFFFFF"/><path d="M513.7 258 517 259.1 519.9 253.8 517 250.8C516.9 246.6 513.9 243.1 509.8 242.2 505.7 241.3 501.6 243.5 499.8 247.3 498.1 251.1 499.2 255.6 502.5 258.2 505.8 260.7 510.4 260.6 513.7 258Z" fill="#FFFFFF"/><path d="M526.1 271.5 490.1 254.5C489.5 254.2 488.7 254 488 254L460 254 460 269 497.5 269 521.9 280.5C524.4 281.6 527.2 280.5 528.4 278 529.5 275.6 528.5 272.7 526.1 271.5Z" fill="#FFFFFF"/><path d="M462 250 483 250 483 238 462 238C460.9 238 460 238.9 460 240L460 248C460 249.1 460.9 250 462 250Z" fill="#FFFFFF"/><path d="M494 244C494 240.7 491.3 238 488 238L486 238 486 250 488 250C491.3 250 494 247.3 494 244Z" fill="#FFFFFF"/></g></svg>