<svg width="136" height="136" xmlns="http://www.w3.org/2000/svg" xmlns:xlink="http://www.w3.org/1999/xlink" xml:space="preserve" overflow="hidden"><defs><clipPath id="clip0"><path d="M292.604 357.267 367.428 297.123 427.573 371.946 352.749 432.091Z" fill-rule="evenodd" clip-rule="evenodd"/></clipPath><clipPath id="clip1"><path d="M292.604 357.267 367.428 297.123 427.573 371.946 352.749 432.091Z" fill-rule="evenodd" clip-rule="evenodd"/></clipPath><clipPath id="clip2"><path d="M292.604 357.267 367.428 297.123 427.573 371.946 352.749 432.091Z" fill-rule="evenodd" clip-rule="evenodd"/></clipPath></defs><g transform="translate(-292 -297)"><g clip-path="url(#clip0)"><g clip-path="url(#clip1)"><g clip-path="url(#clip2)"><path d="M377.235 350.824C370.093 341.938 360.411 342.023 351.215 343.513 354.584 334.775 356.811 325.415 349.669 316.529L344.992 320.288C346.12 321.691 346.951 323.204 347.501 324.687L323.807 343.733C322.478 342.877 321.179 341.74 320.051 340.337L315.375 344.096C322.517 352.981 332.137 352.818 341.395 351.407 337.963 360.067 335.799 369.505 342.941 378.39 350.146 387.353 359.829 387.268 369.024 385.779 365.592 394.439 363.365 403.799 370.507 412.684L375.184 408.925C373.994 407.444 373.225 406.009 372.675 404.527L396.369 385.481C397.699 386.337 398.935 387.396 400.125 388.877L404.802 385.118C397.659 376.233 388.04 376.395 378.844 377.885 382.276 369.225 384.44 359.787 377.235 350.824ZM347.618 374.631C346.49 373.228 345.659 371.715 345.109 370.233L368.881 351.124C370.21 351.98 371.509 353.117 372.637 354.52 373.764 355.923 374.596 357.436 375.146 358.918L351.374 378.027C350.044 377.171 348.745 376.034 347.618 374.631ZM330.528 346.028 348.221 331.807C347.777 335.884 346.023 340.245 344.097 344.872 339.242 345.696 334.605 346.472 330.528 346.028ZM348.435 350.11C353.368 349.224 358.005 348.448 362.082 348.891L344.311 363.175C344.755 359.098 346.447 354.659 348.435 350.11ZM376.064 384.482C380.935 383.518 385.493 382.805 389.57 383.248L371.956 397.407C372.399 393.33 374.076 389.031 376.064 384.482ZM371.804 379.182C366.793 380.131 362.156 380.907 358.017 380.385L375.943 365.976C375.562 370.131 373.808 374.492 371.804 379.182Z" fill="#FFFFFF"/></g></g></g></g></svg>