<svg width="96" height="96" xmlns="http://www.w3.org/2000/svg" xmlns:xlink="http://www.w3.org/1999/xlink" xml:space="preserve" overflow="hidden"><g transform="translate(-920 -316)"><path d="M986.1 395.4 994.6 386.9 997.4 389.7 988.9 398.2 986.1 395.4ZM983.2 375.6 986 378.4 977.5 386.9 974.7 384.1 983.2 375.6ZM993.9 365 996.7 367.8 988.9 375.6 986.1 372.8 993.9 365ZM991.7 384.1 983.2 392.6 980.4 389.8 988.9 381.3 991.7 384.1ZM991.7 378.4 999.5 370.6 1002.3 373.4 994.5 381.2 991.7 378.4ZM1000.2 386.9 997.4 384.1 1005.2 376.3 1008 379.1 1000.2 386.9ZM942.9 391.9 947.2 387.6 951.5 391.9 942.9 391.9ZM944.4 384.8 940 389.2 940 380.4 944.4 384.8ZM947.9 357.2 945.1 354.4 953.6 345.9 956.4 348.7 947.9 357.2ZM942.2 334.6 945 337.4 936.5 345.9 933.7 343.1 942.2 334.6ZM955.7 326.8 947.9 334.6 945.1 331.8 952.8 324 955.7 326.8ZM950.7 343.1 942.2 351.6 939.4 348.8 947.9 340.3 950.7 343.1ZM950.7 337.4 958.5 329.6 961.3 332.4 953.5 340.2 950.7 337.4ZM959.2 345.9 956.4 343.1 964.2 335.3 967 338.1 959.2 345.9ZM1010.8 376.3 996.7 362.2C995.9 361.4 994.9 361 993.9 361 992.9 361 991.8 361.4 991.1 362.2L983.2 370 980.4 367.2 990.3 357.3C991.1 356.5 991.5 355.5 991.5 354.5 991.5 353.4 991.1 352.4 990.3 351.7L988.7 350 992.4 348 984 339.6 982 343.3 980.4 341.7C979.6 340.9 978.6 340.5 977.6 340.5 976.5 340.5 975.5 340.9 974.8 341.7L964.9 351.6 962 348.8 969.8 341C970.6 340.2 971 339.2 971 338.2 971 337.1 970.6 336.1 969.8 335.4L955.7 321.2C954.9 320.4 953.9 320 952.8 320 951.7 320 950.7 320.4 950 321.2L930.9 340.3C930.2 341 929.8 342 929.8 343.1 929.8 344.2 930.2 345.2 931 345.9L945.1 360C945.9 360.8 946.9 361.2 947.9 361.2 948.9 361.2 950 360.8 950.7 360L959.2 351.5 962 354.3 952.1 364.2C951.3 365 950.9 366 950.9 367 950.9 368.1 951.3 369.1 952.1 369.8L955 372.6 952 375.6C945.3 370.3 937.2 369.1 933 373.4L936 376.3 935.9 391.3C933.9 391.6 932.4 393.4 932.5 395.5 932.6 397.6 934.3 399.2 936.4 399.2 938.5 399.3 940.2 397.7 940.5 395.7L955.5 395.8 958.5 398.8C962.7 394.6 961.6 386.5 956.3 379.8L959.3 376.8 962 379.8C962.8 380.6 963.8 381 964.8 381 965.9 381 966.9 380.6 967.6 379.8L977.5 369.9 980.3 372.7 971.8 381.2C971 382 970.6 383 970.6 384 970.6 385 971 386.1 971.8 386.8L986 400.9C986.8 401.7 987.8 402.1 988.8 402.1 989.9 402.1 990.9 401.7 991.6 400.9L1010.8 382C1011.6 381.2 1012 380.2 1012 379.2 1012 378.1 1011.6 377.1 1010.8 376.3Z" fill="#FFFFFF"/></g></svg>