<svg width="96" height="96" xmlns="http://www.w3.org/2000/svg" xmlns:xlink="http://www.w3.org/1999/xlink" xml:space="preserve" overflow="hidden"><g transform="translate(-596 -506)"><path d="M684 585 684 529 680 529 680 538 674 538 674 524C674 521.9 674.4 521.1 674.5 520.9 675.4 520.7 676 519.9 676 518.9 676 517.8 675.1 516.9 674 517L674 517 658.1 517C657 516.9 656.1 517.8 656 518.9 656 519.8 656.6 520.6 657.5 520.9 657.6 521.1 658 521.9 658 524L658 538 652 538 652 524C652 521.9 652.4 521.1 652.5 520.9 653.4 520.7 654 519.9 654 518.9 654 517.8 653.1 516.9 652 517L652 517 636.1 517C635 516.9 634.1 517.8 634 518.9 634 519.8 634.6 520.6 635.5 520.9 635.6 521.1 636 521.9 636 524L636 538 630 538 630 524C630 521.9 630.4 521.1 630.5 520.9 631.4 520.7 632 519.9 632 518.9 632 517.8 631.1 516.9 630 517L630 517 614.1 517C613 516.9 612.1 517.8 612 518.9 612 519.8 612.6 520.6 613.5 520.9 613.6 521.1 614 521.9 614 524L614 538 608 538 608 529 604 529 604 585 600 585 600 591 688 591 688 585 684 585ZM670.3 521C670.1 521.8 670 522.8 670 524L670 533C670 533 668 532 666 532 664 532 662 533 662 533L662 524C662 522.8 661.9 521.8 661.7 521L670.3 521ZM648.3 521C648.1 521.8 648 522.8 648 524L648 533C648 533 646 532 644 532 642 532 640 533 640 533L640 524C640 522.8 639.9 521.8 639.7 521L648.3 521ZM626.3 521C626.1 521.8 626 522.8 626 524L626 533C626 533 624 532 622 532 620 532 618 533 618 533L618 524C618 522.8 617.9 521.8 617.7 521L626.3 521ZM680 585 608 585 608 542 614 542 614 573C614 577.4 617.6 581 622 581 626.4 581 630 577.4 630 573L630 542 636 542 636 573C636 577.4 639.6 581 644 581 648.4 581 652 577.4 652 573L652 542 658 542 658 573C658 577.4 661.6 581 666 581 670.4 581 674 577.4 674 573L674 542 680 542 680 585Z" fill="#FFFFFF"/></g></svg>